<svg xmlns="http://www.w3.org/2000/svg" viewBox="0 0 498.2 169.04"><defs><style>.cls-1{fill:#2b5beb;}</style></defs><title>Recurso 1posto</title><g id="Capa_2" data-name="Capa 2"><g id="Capa_1-2" data-name="Capa 1"><path class="cls-1" d="M49.39,23.36a50.54,50.54,0,0,0-19.13,4.3V23.34h0A30.26,30.26,0,0,0,0,53.6V169H0a30.26,30.26,0,0,0,30.26-30.27V120.55a50.78,50.78,0,0,0,71.23-48.17C100.58,44.94,76.83,22.63,49.39,23.36Zm6.78,77.3a27,27,0,0,1-25.91-8.9,27,27,0,0,1,0-35.32,27.09,27.09,0,1,1,25.91,44.22Z"/><path class="cls-1" d="M447.45,22.63A50.75,50.75,0,1,0,498.2,73.38,50.77,50.77,0,0,0,447.45,22.63Zm0,77.82a27.07,27.07,0,1,1,27.06-27.07A27.07,27.07,0,0,1,447.45,100.45Z"/><path class="cls-1" d="M248.88,119.71A39.26,39.26,0,0,1,233,107.59h0a10.75,10.75,0,0,1,8.59-17.23h14.75a11.47,11.47,0,0,0,4.77,8.3,16.86,16.86,0,0,0,10.44,3.19c3.77,0,6.68-.74,8.75-2.21a6.77,6.77,0,0,0,3.09-5.75q0-4.24-4.42-6.28a90.15,90.15,0,0,0-14.32-4.5,133.78,133.78,0,0,1-17.68-5.22,30.47,30.47,0,0,1-12.2-8.66q-5.13-5.93-5.13-16a27.13,27.13,0,0,1,4.69-15.47,31.5,31.5,0,0,1,13.79-11q9.1-4.07,21.66-4.07,18.56,0,29.26,9.2h0c9.73,8.42,3.77,24.4-9.1,24.4h-6.55a12,12,0,0,0-4.51-8.13q-3.8-3-10-3c-3.53,0-6.25.68-8.13,2a6.5,6.5,0,0,0-2.83,5.57q0,4.25,4.51,6.37a72.07,72.07,0,0,0,14.06,4.24,156.72,156.72,0,0,1,17.86,5.57,31,31,0,0,1,12.11,8.84q5.21,6.11,5.39,16.36A26,26,0,0,1,307,109.54a32.26,32.26,0,0,1-14,10.7,53.5,53.5,0,0,1-21.13,3.89A56.83,56.83,0,0,1,248.88,119.71Z"/><path class="cls-1" d="M385.39,107.86v14.85H370q-16.45,0-25.65-8t-9.19-26.26V49.16h0a12,12,0,0,1-12-12V24.05h12A24.05,24.05,0,0,1,359.22,0h6.18V24.05h0a19.81,19.81,0,0,1,19.81,19.81v5.3H365.4v39.6q0,4.42,2.13,6.37c1.41,1.3,3.77,1.94,7.07,1.94h0A10.79,10.79,0,0,1,385.39,107.86Z"/><path class="cls-1" d="M164.37,22.63a50.75,50.75,0,1,0,50.74,50.75A50.77,50.77,0,0,0,164.37,22.63Zm0,77.82a27.07,27.07,0,1,1,27.06-27.07A27.06,27.06,0,0,1,164.37,100.45Z"/></g></g></svg>