<?xml version="1.0" standalone="no"?>
<!DOCTYPE svg PUBLIC "-//W3C//DTD SVG 20010904//EN"
 "http://www.w3.org/TR/2001/REC-SVG-20010904/DTD/svg10.dtd">
<svg version="1.0" xmlns="http://www.w3.org/2000/svg"
 width="1992.000000pt" height="1992.000000pt" viewBox="0 0 1992.000000 1992.000000"
 preserveAspectRatio="xMidYMid meet">
<metadata>
Created by potrace 1.11, written by Peter Selinger 2001-2013
</metadata>
<g transform="translate(0.000000,1992.000000) scale(0.100000,-0.100000)"
fill="#000000" stroke="none">
<path d="M14165 13325 c-420 -93 -729 -440 -763 -858 l-7 -82 -240 -5 -240 -5
0 -295 c0 -276 2 -300 22 -365 52 -166 178 -286 344 -330 30 -8 66 -15 82 -15
l27 0 0 -757 c0 -777 8 -1037 35 -1193 34 -195 108 -387 199 -514 152 -214
417 -371 734 -436 172 -35 282 -41 677 -38 l380 3 0 335 c-1 322 -1 337 -23
395 -49 132 -152 234 -274 273 -35 11 -104 23 -154 26 -190 12 -262 45 -310
143 l-29 58 -3 853 -2 852 396 0 397 0 -6 173 c-4 146 -9 185 -31 260 -58 195
-159 333 -324 446 -109 73 -278 131 -386 131 l-46 0 0 480 0 480 -197 -1
c-124 -1 -221 -6 -258 -14z"/>
<path d="M6400 12434 c-362 -43 -628 -131 -901 -300 -324 -201 -584 -489 -755
-839 -201 -411 -255 -863 -159 -1330 42 -201 161 -485 282 -670 200 -304 481
-553 804 -713 786 -387 1720 -232 2339 388 309 308 507 704 575 1145 23 149
23 442 0 585 -35 222 -91 402 -185 595 -287 593 -844 1008 -1506 1121 -85 14
-421 27 -494 18z m442 -987 c417 -109 723 -449 793 -881 42 -258 -19 -529
-171 -763 -55 -85 -226 -251 -316 -307 -97 -60 -208 -107 -323 -137 -75 -19
-116 -23 -250 -23 -101 -1 -180 4 -215 12 -230 56 -398 148 -550 301 -137 138
-229 299 -281 486 -30 113 -38 345 -15 469 83 439 424 777 869 862 114 22 338
12 459 -19z"/>
<path d="M10565 12430 c-266 -21 -520 -88 -730 -192 -164 -82 -358 -246 -457
-388 -94 -133 -163 -303 -188 -462 -16 -95 -8 -357 13 -448 22 -97 71 -217
119 -290 88 -136 284 -303 455 -389 104 -52 466 -167 723 -230 272 -67 428
-113 570 -168 112 -43 155 -68 197 -116 42 -48 56 -95 51 -181 -3 -60 -9 -82
-33 -122 -55 -89 -167 -145 -327 -165 -338 -41 -631 124 -692 389 l-13 57
-349 0 c-339 0 -351 -1 -404 -22 -183 -74 -302 -279 -271 -466 16 -98 58 -178
143 -274 146 -164 287 -271 493 -373 199 -98 390 -157 640 -197 155 -25 586
-25 730 0 191 34 338 75 495 140 306 126 547 355 662 627 55 133 69 202 75
368 8 217 -24 386 -99 537 -97 194 -317 397 -543 501 -158 73 -569 201 -865
269 -257 59 -483 143 -554 206 -116 101 -114 291 4 392 136 116 447 128 659
26 115 -57 212 -178 242 -305 6 -27 13 -55 16 -63 5 -21 348 -10 423 14 276
87 444 356 396 635 -31 174 -120 295 -314 424 -204 136 -433 216 -727 256
-108 14 -417 20 -540 10z"/>
<path d="M17680 12431 c-847 -90 -1551 -701 -1761 -1527 -41 -165 -59 -313
-59 -499 0 -188 18 -337 60 -502 200 -772 815 -1347 1605 -1499 123 -24 166
-27 350 -28 227 -1 302 7 500 55 799 192 1408 862 1529 1682 21 144 21 440 0
584 -96 651 -495 1211 -1079 1515 -190 98 -363 157 -585 198 -128 24 -428 35
-560 21z m465 -980 c183 -45 346 -135 484 -267 338 -321 432 -811 236 -1230
-142 -304 -391 -508 -728 -596 -119 -32 -375 -32 -494 0 -220 57 -389 155
-533 309 -405 428 -390 1105 33 1510 169 161 369 260 602 297 72 11 321 -3
400 -23z"/>
<path d="M995 12394 c-485 -89 -877 -471 -974 -951 -21 -100 -21 -117 -21
-2482 l0 -2381 66 0 c80 0 238 31 336 66 403 144 697 480 789 901 19 89 22
138 26 529 l5 432 58 -24 c104 -42 283 -92 415 -115 108 -19 165 -23 335 -23
218 0 313 11 503 59 481 122 920 435 1197 857 163 246 271 536 315 840 22 150
17 475 -10 618 -118 643 -539 1196 -1130 1486 -280 137 -569 204 -880 204
-235 0 -471 -41 -685 -120 -47 -17 -93 -34 -102 -37 -15 -4 -17 5 -20 73 l-3
79 -70 2 c-38 0 -106 -5 -150 -13z m1232 -959 c402 -76 724 -369 838 -760 106
-367 7 -767 -259 -1043 -361 -375 -928 -440 -1360 -158 -519 337 -649 1041
-285 1536 60 82 185 204 264 257 121 81 270 143 404 167 104 19 301 19 398 1z"/>
</g>
</svg>
